<svg id="visual" viewBox="0 0 300 300" width="300" height="300" xmlns="http://www.w3.org/2000/svg" xmlns:xlink="http://www.w3.org/1999/xlink" version="1.1"><g transform="translate(160.8497764905227 189.03949479450924)"><path d="M100.2 -127.1C120.1 -102.8 119.6 -61.9 123.1 -24.4C126.5 13.2 133.8 47.3 118.5 63.4C103.2 79.4 65.3 77.3 37.8 74.7C10.2 72.1 -6.9 69.1 -29.1 66.8C-51.3 64.4 -78.5 62.7 -103.8 46.5C-129.2 30.3 -152.7 -0.4 -149.2 -27.3C-145.6 -54.2 -114.9 -77.3 -85.5 -99.9C-56.1 -122.6 -28.1 -144.8 6.1 -152C40.2 -159.2 80.3 -151.4 100.2 -127.1" fill="#FCAF3C"></path></g></svg>